<svg width="191" height="60" viewBox="0 0 191 60" fill="none" xmlns="http://www.w3.org/2000/svg">
<path d="M17.7162 0C21.0015 0.0586659 23.8762 0.821332 26.3402 2.288C28.8042 3.75467 30.6815 5.72 31.9722 8.184C33.3215 10.648 33.9962 13.4347 33.9962 16.544C33.9962 18.832 33.5562 21.0027 32.6762 23.056C31.8548 25.0507 30.7108 26.84 29.2442 28.424C31.3562 30.008 32.9988 31.9733 34.1722 34.32C35.4042 36.6667 36.0202 39.248 36.0202 42.064C36.0202 45.056 35.2868 47.8133 33.8202 50.336C32.3535 52.8587 30.3882 54.8827 27.9242 56.408C25.4602 57.8747 22.7322 58.608 19.7402 58.608H0.556152V0H17.7162ZM8.30015 7.92V25.344H17.7162C20.1215 25.344 22.1455 24.4933 23.7882 22.792C25.4308 21.0907 26.2522 19.008 26.2522 16.544C26.2522 14.08 25.4308 12.0267 23.7882 10.384C22.2042 8.74133 20.1802 7.92 17.7162 7.92H8.30015ZM8.30015 33.264V50.688H19.7402C22.1455 50.688 24.1695 49.8667 25.8122 48.224C27.4548 46.5227 28.2762 44.4693 28.2762 42.064C28.2762 39.6 27.4548 37.5173 25.8122 35.816C24.1695 34.1147 22.1455 33.264 19.7402 33.264H8.30015Z" fill="#0065FC"/>
<path d="M65.3386 59.048C62.3466 59.048 59.5013 58.4613 56.8026 57.288C54.1039 56.1147 51.7279 54.5013 49.6746 52.448C47.6213 50.3947 46.0079 48.0187 44.8346 45.32C43.6613 42.6213 43.0746 39.776 43.0746 36.784C43.0746 33.7333 43.6613 30.8293 44.8346 28.072C46.0079 25.3147 47.6213 22.9093 49.6746 20.856C51.7279 18.8027 54.1039 17.2187 56.8026 16.104C59.5013 14.9307 62.3466 14.344 65.3386 14.344C68.3893 14.344 71.2933 14.9307 74.0506 16.104C76.8079 17.2187 79.2133 18.8027 81.2666 20.856C83.3199 22.9093 84.9039 25.3147 86.0186 28.072C87.1919 30.8293 87.7786 33.7333 87.7786 36.784C87.7786 39.776 87.1919 42.6213 86.0186 45.32C84.9039 48.0187 83.3199 50.3947 81.2666 52.448C79.2133 54.5013 76.8079 56.1147 74.0506 57.288C71.2933 58.4613 68.3893 59.048 65.3386 59.048ZM65.3386 22.176C61.4079 22.176 58.0346 23.584 55.2186 26.4C53.8693 27.7493 52.8133 29.3333 52.0506 31.152C51.2879 32.9707 50.9066 34.848 50.9066 36.784C50.9066 38.72 51.2879 40.568 52.0506 42.328C52.8133 44.088 53.8693 45.6427 55.2186 46.992C56.5679 48.3413 58.0933 49.3973 59.7946 50.16C61.5546 50.9227 63.4026 51.304 65.3386 51.304C67.2746 51.304 69.1519 50.9227 70.9706 50.16C72.7893 49.3973 74.3439 48.3413 75.6346 46.992C76.9253 45.6427 77.9519 44.088 78.7146 42.328C79.4773 40.568 79.8586 38.72 79.8586 36.784C79.8586 34.848 79.4773 32.9707 78.7146 31.152C77.9519 29.3333 76.9253 27.7493 75.6346 26.4C74.3439 25.0507 72.7893 24.024 70.9706 23.32C69.2106 22.5573 67.3333 22.176 65.3386 22.176Z" fill="#0065FC"/>
<path d="M115.354 59.048C112.362 59.048 109.517 58.4613 106.818 57.288C104.12 56.1147 101.744 54.5013 99.6902 52.448C97.6369 50.3947 96.0235 48.0187 94.8502 45.32C93.6769 42.6213 93.0902 39.776 93.0902 36.784C93.0902 33.7333 93.6769 30.8293 94.8502 28.072C96.0235 25.3147 97.6369 22.9093 99.6902 20.856C101.744 18.8027 104.12 17.2187 106.818 16.104C109.517 14.9307 112.362 14.344 115.354 14.344C118.405 14.344 121.309 14.9307 124.066 16.104C126.824 17.2187 129.229 18.8027 131.282 20.856C133.336 22.9093 134.92 25.3147 136.034 28.072C137.208 30.8293 137.794 33.7333 137.794 36.784C137.794 39.776 137.208 42.6213 136.034 45.32C134.92 48.0187 133.336 50.3947 131.282 52.448C129.229 54.5013 126.824 56.1147 124.066 57.288C121.309 58.4613 118.405 59.048 115.354 59.048ZM115.354 22.176C111.424 22.176 108.05 23.584 105.234 26.4C103.885 27.7493 102.829 29.3333 102.066 31.152C101.304 32.9707 100.922 34.848 100.922 36.784C100.922 38.72 101.304 40.568 102.066 42.328C102.829 44.088 103.885 45.6427 105.234 46.992C106.584 48.3413 108.109 49.3973 109.81 50.16C111.57 50.9227 113.418 51.304 115.354 51.304C117.29 51.304 119.168 50.9227 120.986 50.16C122.805 49.3973 124.36 48.3413 125.65 46.992C126.941 45.6427 127.968 44.088 128.73 42.328C129.493 40.568 129.874 38.72 129.874 36.784C129.874 34.848 129.493 32.9707 128.73 31.152C127.968 29.3333 126.941 27.7493 125.65 26.4C124.36 25.0507 122.805 24.024 120.986 23.32C119.226 22.5573 117.349 22.176 115.354 22.176Z" fill="#0065FC"/>
<path d="M166.825 58.608L153.449 42.328V58.608H145.705V0.0879984H153.449V25.344L165.417 14.08H176.945L156.089 33.44L177.033 58.608H166.825Z" fill="#0065FC"/>
<path d="M186.362 8.272C185.247 8.272 184.279 7.89066 183.458 7.128C182.695 6.30666 182.314 5.33866 182.314 4.224C182.314 3.10933 182.695 2.17067 183.458 1.408C184.279 0.586665 185.247 0.175998 186.362 0.175998C187.477 0.175998 188.415 0.586665 189.178 1.408C189.999 2.17067 190.41 3.10933 190.41 4.224C190.41 5.33866 189.999 6.30666 189.178 7.128C188.415 7.89066 187.477 8.272 186.362 8.272ZM182.754 58.608V14.608H190.146V58.608H182.754Z" fill="#0065FC"/>
<path d="M120 31.108C120 33.5933 117.985 35.608 115.5 35.608C113.015 35.608 111 33.5933 111 31.108C111 28.6228 113.015 26.608 115.5 26.608C117.985 26.608 120 28.6228 120 31.108Z" fill="#0065FC"/>
<path d="M111 45.608L113.172 29.608H118.138L120 45.608H111Z" fill="#0065FC"/>
</svg>
